<svg width="34" height="34" fill="none" xmlns="http://www.w3.org/2000/svg"><path fill="#fff" d="M0 0h34v34H0z"/><path d="M7.966 1.88A4.765 4.765 0 004.39 5.357c-.15.59-.157 1.293-.018 1.581.24.505.956.692 1.443.367.306-.204.415-.439.493-1.07.252-1.978 2.296-3.018 3.986-2.026.631.366 1.154 1.184 1.257 1.954.054.439.078 14.802.018 14.802-.018 0-.157-.108-.313-.234-.692-.578-1.485-.848-2.447-.854-1.028 0-1.792.294-2.64.998-.565.469-.679.535-1.118.625-.571.12-1.034-.012-1.623-.45-.373-.283-.403-.295-.788-.295-.313 0-.445.03-.577.126-.21.15-.439.59-.439.836 0 .643.974 1.449 2.11 1.743.505.133 1.407.133 1.918 0a4.085 4.085 0 001.654-.878c.234-.198.523-.42.655-.487.487-.246 1.227-.246 1.72.012.114.067.402.277.63.481a4.204 4.204 0 001.654.878c.47.12 1.353.133 1.81.024.547-.126 1.257-.493 1.738-.902.246-.204.595-.445.775-.529.644-.294 1.443-.156 2.026.361.656.577 1.179.866 1.888 1.046.5.127 1.63.09 2.075-.066a4.412 4.412 0 001.449-.824c.637-.547.92-.673 1.473-.667.583.006.944.162 1.527.673.469.41 1.07.728 1.653.878.511.133 1.413.133 1.918 0 1.136-.294 2.11-1.1 2.11-1.743 0-.247-.228-.686-.438-.836-.133-.096-.265-.126-.578-.126-.384 0-.415.012-.787.294-.59.44-1.053.571-1.624.451-.438-.09-.553-.156-1.118-.625-.8-.668-1.611-.992-2.501-.998l-.463-.006-.018-7.137c-.018-6.746-.024-7.149-.132-7.461-.517-1.557-1.413-2.58-2.73-3.12-.667-.277-1.004-.337-1.846-.337-.65 0-.86.024-1.232.144-1.936.595-3.199 2.146-3.403 4.167-.066.685.198 1.148.757 1.316.307.096.644 0 .932-.252.229-.199.289-.373.379-1.064.295-2.17 2.916-3.067 4.461-1.516.15.15.349.397.439.554.319.553.343.763.343 3.306v2.333l-4.594-.012-4.6-.018-.023-2.435c-.024-2.808-.042-2.94-.535-3.968-.27-.56-.367-.692-.884-1.203-.65-.637-1.209-.98-1.99-1.202-.607-.174-1.672-.216-2.255-.084zm14.88 13.012v2.044h-9.192l-.018-2.02c-.012-1.113-.006-2.033.006-2.045.012-.012 2.092-.024 4.617-.024h4.588v2.045zm0 4.924v.835l-.312.283c-.469.42-.878.59-1.4.59-.542 0-.939-.17-1.474-.644-.45-.397-1.299-.836-1.822-.938a5.379 5.379 0 00-.823-.072 5.38 5.38 0 00-.824.072c-.517.102-1.37.541-1.81.932-.366.319-.691.535-.74.48-.011-.011-.017-.546-.005-1.196l.018-1.178h9.193v.836zM8.087 24.235c-.734.138-1.395.475-2.014 1.028a3.45 3.45 0 01-.65.44c-.282.125-.384.143-.817.12-.535-.03-.734-.109-1.203-.476-.505-.402-.998-.433-1.407-.084-.559.47-.469 1.197.217 1.744 1.527 1.208 3.637 1.166 5.098-.108.481-.421.704-.553 1.095-.644.625-.144 1.214.048 1.875.626.44.384 1.305.835 1.792.931.451.097 1.299.079 1.756-.03.571-.132 1.178-.456 1.731-.92.577-.486.914-.637 1.455-.637s.878.15 1.455.638c.908.77 1.714 1.052 2.844.998.974-.049 1.678-.331 2.435-.98.668-.578 1.25-.77 1.876-.626.39.09.613.223 1.094.644 1.461 1.274 3.572 1.316 5.099.108.685-.547.775-1.275.216-1.744-.409-.349-.902-.318-1.407.084-.445.35-.673.445-1.136.475-.68.043-.992-.09-1.792-.757-1.455-1.233-3.559-1.185-5.086.108-.59.5-.944.661-1.455.661-.565 0-.896-.138-1.431-.583-.914-.77-1.672-1.064-2.712-1.064-1.04 0-1.797.295-2.711 1.064-.535.445-.866.583-1.431.583-.511 0-.866-.162-1.455-.66-.98-.825-2.177-1.161-3.331-.939zm-.115 4.335c-.583.12-1.31.5-1.84.963-.577.505-.95.655-1.533.619-.48-.03-.745-.139-1.214-.505-.553-.433-1.07-.421-1.485.036-.325.36-.361.836-.09 1.232.18.259.691.656 1.112.866.637.319 1.004.397 1.798.391.625 0 .781-.024 1.196-.162.595-.21.884-.38 1.467-.86.992-.83 1.852-.842 2.802-.03.848.721 1.551 1.022 2.5 1.07 1.06.054 2.027-.283 2.85-.992.62-.535.86-.643 1.48-.643s.86.108 1.479.643c.98.848 2.26 1.184 3.469.914.752-.175 1.22-.427 1.942-1.046.613-.523 1.299-.674 1.96-.421.18.066.517.282.77.499.57.475.883.655 1.479.866.415.138.57.162 1.196.162.794.006 1.16-.072 1.798-.39.42-.211.932-.608 1.112-.867.27-.396.235-.871-.09-1.232-.415-.457-.932-.47-1.485-.036-.47.367-.734.475-1.215.505-.583.036-.956-.114-1.533-.62-1.034-.895-2.272-1.232-3.505-.955-.752.174-1.25.438-1.942 1.046-.463.403-.89.559-1.437.529-.517-.036-.806-.175-1.383-.662-.74-.637-1.707-1.01-2.615-1.01-.908 0-1.876.373-2.616 1.01-.577.488-.865.626-1.382.662-.553.03-.974-.126-1.45-.541-.847-.74-1.61-1.064-2.609-1.107a4.489 4.489 0 00-.986.067z" fill="#204776"/></svg>