<svg width="34" height="34" fill="none" xmlns="http://www.w3.org/2000/svg"><path d="M18.68 3.697a3.37 3.37 0 00-.564.198c-.288.136-.512.335-1.54 1.347-.664.658-1.274 1.285-1.353 1.394-.161.22-.203.559-.094.778.032.063.956 1.013 2.052 2.114l1.99 1.995-3.827 3.82-3.822 3.827-1.994-1.989c-1.102-1.096-2.052-2.02-2.114-2.051-.22-.11-.559-.068-.778.094-.11.078-.736.689-1.394 1.352-1.008 1.023-1.211 1.253-1.342 1.535-.475 1.018-.271 2.004.596 2.86.187.183.344.355.344.381 0 .027-.177.24-.402.476-1.07 1.138-1.06 2.406.026 3.539l.418.433-.418.434c-.84.877-1.033 1.816-.569 2.808.418.893 1.467 1.446 2.438 1.284.543-.088.945-.308 1.44-.783l.434-.417.434.417c.678.653 1.373.909 2.13.783.537-.088.929-.302 1.435-.783l.449-.423.36.366c.674.684 1.363.96 2.135.846.742-.105.935-.24 2.282-1.567.663-.657 1.273-1.284 1.352-1.393.162-.22.203-.559.094-.778-.032-.063-.956-1.013-2.052-2.114l-1.989-1.995 3.827-3.821 3.821-3.827 1.994 1.99c1.102 1.096 2.052 2.02 2.114 2.051.22.11.559.068.778-.094.11-.078.736-.689 1.394-1.352 1.326-1.342 1.462-1.54 1.566-2.27.11-.784-.162-1.473-.845-2.147l-.366-.36.423-.449c.48-.506.694-.898.783-1.435.125-.757-.13-1.452-.783-2.13l-.418-.433.418-.434c.475-.496.694-.898.783-1.44.162-.972-.392-2.02-1.284-2.439-.992-.464-1.932-.271-2.809.57l-.433.417-.433-.417c-1.133-1.086-2.402-1.097-3.54-.027-.235.225-.449.402-.475.402-.026 0-.198-.156-.38-.344-.695-.7-1.447-.966-2.293-.799zm.793 1.582c.099.042 2.067 1.973 4.72 4.63 4.86 4.876 4.666 4.662 4.583 5.1-.026.162-.194.35-.956 1.123l-.924.924-4.97-4.97-4.975-4.975.877-.877c.48-.485.945-.913 1.029-.955a.746.746 0 01.616 0zm4.406-.016c.193.068 4.693 4.558 4.823 4.808.194.376.079.72-.396 1.19l-.287.288-2.778-2.783L22.46 5.99l.287-.287c.439-.444.778-.574 1.133-.439zm4.505.052c.235.13.418.434.418.684 0 .22-.21.554-.543.877l-.24.235-.559-.564-.564-.558.287-.292c.486-.491.815-.596 1.201-.382zm-7.56 7.862c.283.282.512.533.512.564 0 .068-1.002 1.07-1.07 1.07-.067 0-1.07-1.002-1.07-1.07 0-.068 1.002-1.07 1.07-1.07.026 0 .282.23.559.506zm-2.202 2.235l.548.548-1.608 1.608-1.603 1.602-.558-.563-.564-.559 1.592-1.592c.877-.877 1.603-1.592 1.619-1.592.015 0 .271.245.574.548zM16.152 27.8c-.96.965-1.09 1.049-1.482.981-.177-.036-.663-.501-4.782-4.615-4.891-4.891-4.74-4.719-4.656-5.163.03-.167.172-.334.955-1.127l.924-.924 4.97 4.97 4.975 4.975-.903.903zM14.3 19.703c.282.282.512.532.512.564 0 .067-1.002 1.07-1.07 1.07-.068 0-1.07-1.003-1.07-1.07 0-.068 1.002-1.07 1.07-1.07.026 0 .282.23.558.506zm-5.518 5.55l2.767 2.766-.287.287c-.47.475-.814.59-1.19.397-.105-.058-1.232-1.143-2.5-2.417-2.522-2.532-2.46-2.449-2.319-2.918.058-.183.632-.883.731-.883.016 0 1.274 1.243 2.798 2.767zM6.563 27.47l.543.548-.23.24c-.506.522-.867.647-1.253.433-.365-.203-.511-.647-.334-1.002.078-.157.637-.767.7-.767.015 0 .271.245.574.548z" fill="#204776"/></svg>