<svg width="34" height="34" fill="none" xmlns="http://www.w3.org/2000/svg"><path d="M9.455 2.454c-2.795.425-4.822 2.772-4.68 5.419.018.316.063.687.097.824l.069.25-.365.432c-1.57 1.867-2.038 4.29-1.27 6.543.365 1.07.9 1.9 1.766 2.73a7.261 7.261 0 003.87 1.942l.37.06v2.314c0 1.271-.01 2.314-.028 2.314-.011 0-.114-.131-.216-.29a3.626 3.626 0 00-1.537-1.26c-1.941-.824-4.201.13-4.919 2.068l-.159.437-.017 1.73c-.017 1.659-.011 1.735.102 1.948a.732.732 0 00.342.333c.222.11.302.11 14.118.11s13.896 0 14.118-.11c.256-.126.456-.437.456-.71 0-.447-.422-.818-.928-.818h-.245l-.222-.737c-.12-.41-.205-.747-.194-.758.012-.011.108-.06.205-.11.216-.103.416-.436.416-.687 0-.437-.421-.819-.905-.819-.222 0-.234-.005-.29-.234-.058-.191-.166-.568-.32-1.092-.028-.082.018-.093.405-.093.546 0 .83-.125.996-.436.108-.202.114-.317.114-1.91 0-1.594-.006-1.709-.114-1.91a.747.747 0 00-.342-.328c-.222-.109-.318-.109-7.23-.109-6.91 0-7.007 0-7.23.11a.748.748 0 00-.34.327c-.109.201-.115.316-.115 1.91 0 1.593.006 1.708.114 1.91.165.31.45.436.996.436.387 0 .433.011.405.093-.154.524-.262.9-.32 1.092-.056.229-.068.234-.29.234-.483 0-.905.382-.905.819 0 .25.2.584.416.688.097.049.193.098.205.109.011.01-.074.349-.194.758l-.222.737h-2.123l-.034-.59c-.046-.927-.348-1.571-1.014-2.16a3.716 3.716 0 00-1.144-.655c-.097-.028-.102-.186-.102-2.347v-2.314l.415-.066c2.277-.365 4.36-1.926 5.329-4.005 1.11-2.369.723-5.152-1.008-7.204l-.364-.431.068-.251c.034-.137.08-.508.097-.824.09-1.708-.752-3.395-2.226-4.453-.461-.333-1.264-.699-1.856-.846-.472-.115-1.611-.186-2.02-.12zm1.48 1.68c1.23.246 2.334 1.212 2.744 2.39.131.394.154.536.154 1.13 0 .552-.029.748-.125 1.037-.137.388-.154.633-.074.83.034.07.233.306.45.524a5.506 5.506 0 011.445 2.445c.16.573.177 1.872.029 2.434a5.441 5.441 0 01-2.784 3.503c-.353.186-1.201.48-1.565.546L11.02 19v-2.259l1.03-.982c1.042-.994 1.247-1.25 1.247-1.556 0-.272-.2-.584-.456-.71-.46-.223-.734-.13-1.377.481l-.444.42v-1.49c0-1.386-.006-1.506-.114-1.702a.904.904 0 00-.74-.437.904.904 0 00-.74.437c-.109.207-.114.31-.114 4.011v3.793l-.154-.033c-1.156-.235-2.106-.726-2.915-1.5-.683-.656-1.16-1.469-1.44-2.43-.176-.616-.176-1.931 0-2.542a5.363 5.363 0 011.435-2.445c.222-.224.432-.464.46-.535.08-.202.058-.448-.073-.83-.097-.289-.125-.485-.125-1.036 0-.595.022-.737.153-1.125.598-1.735 2.442-2.767 4.281-2.395zm17.961 17.71v.71H16.941v-1.42h11.955v.71zm-8.96 2.44a450.24 450.24 0 00-.666 2.264l-.644 2.172h-.706c-.643 0-.7-.005-.672-.098.018-.05.32-1.07.667-2.265l.643-2.167h.706c.643 0 .7.006.672.093zm4.343.54c.103.349.2.67.216.709.023.065-.244.076-1.576.076-1.333 0-1.6-.01-1.577-.076.017-.038.114-.36.216-.71l.182-.633h2.357l.182.633zm3.643 1.533c.348 1.195.65 2.216.667 2.265.028.093-.029.098-.672.098h-.706l-.643-2.172c-.348-1.19-.65-2.21-.666-2.265-.029-.087.028-.093.671-.093h.706l.643 2.167zM6.627 25.145c.563.164 1.081.672 1.24 1.217.149.513.2.612.416.754.314.201.672.18 1.088-.066.615-.36 1.31-.3 1.793.17.296.277.427.632.427 1.129v.371H4.132v-1.026c0-1.14.046-1.397.342-1.823.2-.289.666-.616 1.03-.726a2.17 2.17 0 011.122 0zm18.57 2.767c.102.371.199.704.216.737.017.055-.507.071-2.493.071-1.987 0-2.511-.016-2.494-.071.017-.033.114-.366.216-.737l.194-.665h4.167l.194.665z" fill="#204776"/></svg>