<svg width="36" height="35" fill="none" xmlns="http://www.w3.org/2000/svg"><path d="M25.037 2.52c-.047.01-.288.05-.528.084-2.1.326-4.07 1.736-5.056 3.624-.527 1.005-.715 1.803-.715 3.005 0 .944.088 1.489.358 2.22.621 1.651 1.888 3.027 3.524 3.814a8.027 8.027 0 001.848.596l.393.067v2.466c0 1.36-.018 2.467-.041 2.467-.03 0-.24-.05-.481-.113a3.648 3.648 0 00-.598-.112c-.147 0-.188-.067-.786-1.365-.81-1.747-1.02-2.13-1.384-2.523-.393-.427-1.062-.848-1.654-1.04l-.481-.156H10.99l-.48.157c-.84.27-1.637.876-2.06 1.556-.087.135-.474.933-.861 1.77l-.71 1.517-.504.039c-1.033.073-1.76.393-2.487 1.084-.376.354-.528.55-.722.927-.393.77-.416.955-.416 3.5 0 2.13.006 2.248.117 2.456a.77.77 0 00.352.337c.211.1.34.112 1.554.112 1.209 0 1.326.011 1.355.096.305.898 1.115 1.68 2.065 1.994.557.18 1.46.18 2.017 0 .95-.315 1.76-1.096 2.065-1.994.029-.09.234-.096 3.231-.096s3.203.006 3.232.096c.211.629.75 1.292 1.331 1.651.552.343 1.02.472 1.742.472.487 0 .698-.028 1.009-.13.786-.258 1.501-.847 1.859-1.533l.182-.348v.685c0 .81.082 1.028.457 1.23.288.152.534.158.833.012.393-.191.47-.416.47-1.348v-.787h.615c.757 0 1.015-.096 1.208-.455.118-.225.123-.292.1-1.87-.023-1.45-.041-1.686-.152-2.074a5.703 5.703 0 00-1.42-2.405l-.352-.36V15.93l.4-.067a7.176 7.176 0 003.682-1.877c1.003-.966 1.642-2.09 1.936-3.404.135-.596.152-1.978.03-2.557-.558-2.69-2.646-4.77-5.402-5.37-.458-.102-1.983-.197-2.23-.135zm2.023 1.825c1.836.456 3.285 1.843 3.789 3.624.105.365.129.601.129 1.264s-.024.9-.129 1.264c-.504 1.781-1.93 3.146-3.789 3.63-.381.1-.627.123-1.32.123-.691 0-.938-.022-1.319-.123-1.86-.484-3.284-1.849-3.789-3.63-.105-.365-.129-.6-.129-1.264 0-.663.024-.899.13-1.264.539-1.916 2.146-3.343 4.158-3.708.61-.112 1.653-.073 2.27.084zM14.48 18.896v1.686H8.797l.293-.635c.868-1.87.874-1.877 1.202-2.174.57-.517.722-.55 2.651-.556l1.537-.006v1.685zm5.061-1.528c.153.068.423.247.593.405.328.297.334.309 1.202 2.174l.293.635H16.24v-3.377l1.514.017c1.401.017 1.524.028 1.788.146zm-5.061 7.427v2.528h-1.085c-.985 0-1.091-.01-1.12-.1-.212-.624-.751-1.287-1.332-1.647-.551-.342-1.02-.472-1.742-.472-.721 0-1.19.13-1.741.472-.581.36-1.12 1.023-1.332 1.646-.03.09-.123.101-.827.101h-.797l.017-1.786.018-1.781.152-.309a2.01 2.01 0 011.302-1.095c.194-.062 1.132-.08 4.37-.08l4.117-.005v2.528zm9.296-2.444c.534.107 1.29.467 1.654.787l.281.247-.281.006c-.387 0-.716.174-.862.45-.147.28-.147.505 0 .786.187.354.375.416 1.32.45l.82.027.041.225c.024.124.041.624.041 1.107l.006.887h-.938c-.845 0-.944-.01-.974-.1-.21-.624-.75-1.287-1.331-1.647-.551-.342-1.02-.472-1.742-.472-.721 0-1.19.13-1.742.472-.58.36-1.12 1.023-1.331 1.646-.03.09-.14.101-1.267.101h-1.232v-5.056h3.566c2.898 0 3.637.017 3.97.085zM9.7 26.858c.54.174.968.753.968 1.31 0 .74-.692 1.404-1.467 1.404-.351 0-.762-.169-1.026-.422a1.337 1.337 0 010-1.966c.405-.393.962-.511 1.525-.326zm12.61 0c.54.174.967.753.967 1.31 0 .74-.692 1.404-1.466 1.404-.352 0-.762-.169-1.026-.422a1.337 1.337 0 010-1.966c.404-.393.962-.511 1.525-.326z" fill="#204776"/><path d="M23.293 5.396a.951.951 0 00-.404.369c-.132.237-.139.362-.139 3.25 0 2.887.007 3.012.14 3.25.16.281.556.5.904.5s.744-.219.904-.5c.112-.194.14-.369.14-.813v-.562h.66a7.18 7.18 0 001.023-.069c1.246-.237 2.213-1.15 2.436-2.3.278-1.45-.814-2.875-2.436-3.187-.201-.038-.953-.07-1.67-.07-1.155.007-1.329.02-1.558.132zm3.075 1.869c.313.144.557.5.557.812 0 .313-.244.67-.557.813-.215.1-.41.125-.904.125h-.627V7.14h.627c.494 0 .689.025.904.125z" fill="#204776"/></svg>