<svg width="34" height="35" fill="none" xmlns="http://www.w3.org/2000/svg"><path fill="#fff" d="M0 .625h34v34H0z"/><path d="M15.623 4.438c-.194.1-.44.285-.565.428-.16.19-.662 1.177-1.752 3.477l-1.517 3.21-3.429.516c-3.73.565-3.77.577-4.193 1.017-.359.374-.524.814-.524 1.379 0 .838-.035.79 2.795 3.661 1.363 1.385 2.481 2.568 2.481 2.621 0 .054-.256 1.67-.576 3.596-.433 2.651-.564 3.555-.536 3.763.165 1.159 1.335 1.932 2.367 1.563.172-.06 1.643-.838 3.275-1.73l2.96-1.616 3.03 1.658c1.671.915 3.16 1.694 3.309 1.736 1.015.267 2.116-.547 2.242-1.659.022-.202-.132-1.248-.554-3.84l-.582-3.56.303-.309c3.73-3.768 4.695-4.779 4.832-5.052.13-.256.154-.369.154-.832 0-.422-.029-.595-.126-.814-.154-.357-.576-.797-.907-.951-.188-.084-1.244-.268-3.685-.636l-3.423-.518-1.466-3.084c-.81-1.7-1.512-3.174-1.563-3.275-.143-.28-.633-.714-.936-.82a1.966 1.966 0 00-1.414.07zm4.112 8.464c.44.434.56.463 4.16 1.022 1.82.285 3.325.511 3.354.511.022 0 .04.024.04.048 0 .03-1.102 1.17-2.454 2.538-2.68 2.716-2.738 2.781-2.783 3.477-.017.243.13 1.32.53 3.798.302 1.902.542 3.477.525 3.495-.017.018-1.375-.707-3.018-1.605-1.643-.898-3.086-1.664-3.211-1.7a1.811 1.811 0 00-1.067.042c-.143.053-1.586.82-3.206 1.7-1.62.88-2.955 1.587-2.967 1.575-.005-.012.24-1.534.542-3.382.337-2.01.56-3.525.565-3.775 0-.796 0-.796-2.79-3.655-1.996-2.039-2.447-2.532-2.361-2.568a35.49 35.49 0 011.557-.255c3.594-.53 5.009-.755 5.265-.838.16-.06.394-.214.588-.393.302-.29.382-.44 1.865-3.536l1.552-3.228 1.546 3.252c1.244 2.627 1.592 3.298 1.768 3.477z" fill="#204776"/></svg>