<svg width="38" height="38" fill="none" xmlns="http://www.w3.org/2000/svg"><path d="M29.168 4.03c-.274.044-.696.198-1.07.39-.438.225-.443.23-3.613 3.537-1.146 1.195-2.116 2.166-2.15 2.155-.038-.016-2.911-.965-6.388-2.117a1041.31 1041.31 0 01-6.36-2.116c-.017-.006-.889.844-1.936 1.891L5.748 9.673l5.346 3.29c2.94 1.805 5.347 3.307 5.352 3.33 0 .027-.833.915-1.853 1.974a892.879 892.879 0 00-2.183 2.28l-.329.352-1.743-.29-1.75-.286-1.826 1.826c-1.14 1.14-1.804 1.843-1.76 1.864.033.017 1.36.483 2.945 1.037 1.584.548 2.906 1.03 2.939 1.064.033.033.515 1.354 1.064 2.94a335.77 335.77 0 001.036 2.944c.022.044.724-.62 1.864-1.76l1.827-1.826-.291-1.739-.285-1.738.241-.236c1.727-1.678 4.327-4.146 4.365-4.146.022.006 1.524 2.413 3.328 5.352l3.29 5.347 1.898-1.897 1.903-1.903-2.128-6.422-2.128-6.427.176-.175c.093-.093 1.3-1.25 2.67-2.561 2.66-2.55 2.83-2.742 3.099-3.488.658-1.837-.505-3.904-2.413-4.305-.362-.076-.927-.098-1.234-.044zm1.24 1.777c.334.16.624.45.794.795.11.22.132.351.127.708 0 .746.093.636-3.312 3.904C26.36 12.804 25 14.132 25 14.16c0 .022.948 2.912 2.11 6.416a726.58 726.58 0 012.112 6.427c0 .028-.357.406-.79.84l-.79.789-.082-.132c-.043-.071-1.518-2.462-3.273-5.313a826.738 826.738 0 00-3.225-5.221c-.049-.05-6.668 6.3-6.69 6.416-.005.05.11.844.258 1.766l.274 1.672-.586.587c-.324.33-.598.592-.615.592-.016 0-.361-.948-.767-2.1l-.735-2.106-2.1-.735c-1.157-.405-2.1-.745-2.1-.762 0-.016.263-.296.592-.614l.587-.592 1.672.28c.921.147 1.716.263 1.766.257.05-.01 1.524-1.508 3.273-3.334 2.397-2.5 3.164-3.334 3.115-3.378a641.579 641.579 0 00-5.22-3.23A4464.331 4464.331 0 018.5 9.438l-.132-.083.79-.79c.433-.433.811-.79.839-.79.027 0 2.922.95 6.426 2.112 3.504 1.163 6.394 2.111 6.422 2.111.021 0 1.349-1.36 2.939-3.016 2.868-2.988 3.07-3.18 3.52-3.295.285-.077.823-.017 1.102.12z" fill="#D76400"/></svg>