<svg width="38" height="38" fill="none" xmlns="http://www.w3.org/2000/svg"><path d="M13.048 8.666c-.648.092-1.159.351-2.398 1.253-1.44 1.036-1.853 1.203-2.725 1.136-.642-.058-1.36-.3-2.008-.693-.71-.426-1.239-.25-1.485.501-.15.434-.15.743-.012 1.186.138.443.247.543.975.96.964.552 1.727.769 2.674.777 1.204.009 1.858-.259 3.424-1.436 1.113-.827 1.4-.96 2.111-.96.792 0 1.188.175 2.496 1.11.63.46 1.33.902 1.548 1.002.804.343 1.95.343 2.748 0 .224-.1.924-.55 1.555-1.002 1.33-.96 1.67-1.11 2.467-1.11.728-.01.895.074 2.323 1.118 1.394 1.028 1.876 1.245 2.874 1.303 1.113.067 2.398-.334 3.436-1.085.31-.226.396-.335.505-.644.069-.2.126-.484.126-.634 0-.426-.23-.96-.522-1.186-.316-.242-.522-.217-1.216.183-1.228.702-2.41.836-3.281.376a59.344 59.344 0 01-1.377-.96c-1.457-1.053-1.824-1.211-2.811-1.203-1.205 0-1.841.267-3.413 1.428-1.09.802-1.366.936-2.037.927-.67 0-.98-.133-2.008-.902a17.703 17.703 0 00-1.336-.91c-.809-.451-1.761-.643-2.633-.535zm-.409 6.949c-.511.16-.86.37-1.986 1.183-1.273.923-1.795 1.167-2.49 1.167-.648 0-1.09-.134-2.03-.596-.964-.47-1.125-.478-1.464-.042-.361.461-.447 1.057-.24 1.645.149.427.315.587.986.956 1.32.722 2.617.965 3.632.688.757-.21 1.257-.486 2.381-1.309 1.394-1.023 1.756-1.166 2.61-1.007.649.118.884.252 2.18 1.183 1.504 1.083 2.164 1.31 3.283 1.158.728-.1 1.164-.318 2.455-1.25 1.297-.931 1.698-1.107 2.496-1.116.7-.008.872.084 2.33 1.158 1.41 1.049 1.812 1.225 2.868 1.284.562.025.89 0 1.285-.11.649-.167 1.618-.62 2.123-.99.31-.226.396-.335.505-.645.155-.462.16-.772.006-1.225-.259-.78-.74-.923-1.544-.462-1.021.587-1.761.789-2.501.68-.631-.093-.86-.218-2.232-1.217-.66-.487-1.36-.94-1.55-1.015-.189-.076-.665-.16-1.06-.176-1.274-.076-2.032.226-3.644 1.434-1.032.772-1.337.915-2.008.915-.648.008-1.079-.185-1.962-.873-1.48-1.15-2.129-1.435-3.345-1.468-.459-.017-.947.008-1.084.05zm-.091 6.943c-.5.167-.85.376-2.009 1.22-1.308.953-1.733 1.12-2.64 1.053-.665-.05-1.055-.184-2.02-.677-.539-.284-.602-.3-.843-.209-.476.176-.798.903-.7 1.597.086.652.396.952 1.526 1.487 1.234.594 2.353.736 3.357.427.689-.218 1.08-.435 2.244-1.287 1.2-.878 1.487-1.003 2.192-.995.764.017 1.24.234 2.502 1.153.597.435 1.251.861 1.458.953.803.368 1.83.376 2.737.042.19-.075.861-.502 1.492-.961 1.349-.97 1.808-1.179 2.6-1.187.712 0 .918.1 2.364 1.17 1.55 1.145 2.296 1.404 3.587 1.254.97-.117 2.622-.87 2.99-1.363.384-.526.396-1.328.034-1.897-.327-.51-.58-.552-1.205-.226-1.348.703-1.957.87-2.731.744-.62-.108-1.016-.326-2.118-1.162-.476-.367-1.12-.793-1.417-.944-.534-.267-.569-.276-1.492-.276-.793.009-1.022.034-1.418.192-.574.226-1.205.619-2.043 1.262-.935.72-1.268.87-1.963.87-.7 0-1.021-.142-2.008-.903-.803-.61-1.383-.97-1.98-1.212-.556-.234-1.968-.31-2.496-.125z" fill="#204776"/></svg>