<svg width="38" height="38" fill="none" xmlns="http://www.w3.org/2000/svg"><path d="M18.062 3.663a2.753 2.753 0 00-.689.521c-.195.232-.807 1.435-2.135 4.24l-1.85 3.913-4.18.63c-4.55.69-4.598.704-5.113 1.24-.438.457-.64.993-.64 1.681 0 1.022-.042.964 3.408 4.464 1.663 1.689 3.026 3.131 3.026 3.196 0 .066-.313 2.037-.703 4.385-.528 3.232-.688 4.333-.653 4.587.201 1.413 1.627 2.355 2.886 1.906.209-.073 2.003-1.022 3.992-2.109l3.61-1.971 3.694 2.022c2.038 1.116 3.853 2.065 4.034 2.116 1.238.326 2.58-.667 2.733-2.022.028-.246-.16-1.522-.674-4.682l-.71-4.34.369-.377c4.549-4.595 5.724-5.827 5.891-6.16.16-.312.188-.45.188-1.015 0-.514-.035-.724-.153-.993-.188-.434-.703-.97-1.106-1.16-.23-.1-1.516-.325-4.493-.774l-4.173-.631-1.788-3.761c-.988-2.073-1.843-3.87-1.906-3.993-.174-.34-.772-.87-1.14-1-.536-.189-1.232-.153-1.725.087zm5.014 10.32c.536.528.682.565 5.071 1.246 2.219.348 4.055.623 4.09.623.028 0 .048.029.048.058 0 .036-1.342 1.428-2.99 3.094-3.27 3.312-3.339 3.392-3.395 4.24-.02.297.16 1.609.647 4.63.369 2.32.661 4.24.64 4.262-.02.022-1.676-.862-3.68-1.957-2.003-1.094-3.762-2.029-3.915-2.072a2.209 2.209 0 00-1.3.05c-.175.066-1.934 1-3.91 2.073-1.975 1.073-3.603 1.935-3.617 1.92-.007-.014.292-1.87.661-4.123.41-2.45.682-4.297.689-4.602 0-.971 0-.971-3.402-4.457-2.434-2.485-2.983-3.087-2.88-3.13.07-.022.926-.167 1.9-.312 4.382-.645 6.107-.92 6.42-1.022.194-.072.48-.26.716-.478.369-.355.466-.537 2.274-4.312l1.892-3.935 1.885 3.964c1.516 3.203 1.94 4.022 2.156 4.24z" fill="#D76400"/></svg>