<svg width="38" height="38" fill="none" xmlns="http://www.w3.org/2000/svg"><path d="M17.509 3.597a10.734 10.734 0 00-8.872 10.605c0 5.981 4.768 10.75 10.747 10.75 5.98 0 10.748-4.769 10.748-10.75 0-5.266-3.744-9.724-8.909-10.605-1.096-.187-2.647-.187-3.714 0zm3.426 3.074a7.504 7.504 0 013.707 1.94c.736.693 1.184 1.306 1.638 2.237 1.039 2.135 1.06 4.473.065 6.58-.426.894-.758 1.392-1.428 2.091-2.28 2.381-5.8 3.045-8.757 1.645-.873-.411-1.385-.757-2.034-1.37-.736-.693-1.176-1.306-1.637-2.237-1.292-2.64-.989-5.7.8-8.044.404-.527 1.27-1.335 1.789-1.68.974-.643 2.287-1.133 3.426-1.278.613-.08 1.767-.021 2.431.116z" fill="#204776"/><path d="M18.511 7.219c-.218.121-.507.38-.655.58-.236.337-.262.433-.262 1.039 0 .588.026.71.236 1.012.13.182.384.433.568.554.27.182.419.217.987.217.568 0 .716-.035.987-.217.184-.121.437-.372.568-.554.21-.303.236-.424.236-1.004 0-.58-.026-.7-.236-1.004-.384-.536-.786-.761-1.459-.796-.48-.026-.647.009-.97.173zm-3.138 3.47c-.48.109-.91.461-1.146.93-.372.747-.262 1.468.312 2.038.59.587 1.323.704 2.074.335 1.07-.536 1.307-1.836.497-2.75-.244-.285-.447-.419-.767-.511-.464-.134-.557-.143-.97-.042zm7.105.001c-.178.043-.49.237-.694.422-.956.825-.753 2.315.38 2.88.745.37 1.49.252 2.073-.33 1.286-1.279 0-3.46-1.76-2.971zM11.323 28.16v1.419h1.643c1.868 0 2.335.054 2.998.331.911.379 1.597 1.217 1.763 2.143.045.223.075.723.075 1.122v.73h3.164v-.73c0-.933.09-1.42.369-1.947.422-.818 1.356-1.433 2.388-1.581.249-.041 1.183-.068 2.087-.068h1.635V26.74H11.323v1.42z" fill="#204776"/></svg>