<svg width="38" height="38" fill="none" xmlns="http://www.w3.org/2000/svg"><path d="M4.87 5.704c-.651.263-.859 1.087-.402 1.589.311.341.498.38 1.95.38 1.308 0 1.322 0 1.357.141.193.766 2.87 12.497 2.87 12.587 0 .064-.103.167-.242.232-.394.2-1.044.855-1.307 1.319-.893 1.59-.436 3.468 1.107 4.55.228.154.567.34.768.418l.36.135-.14.296c-.193.418-.338 1.01-.338 1.402-.007 1.77 1.432 3.327 3.313 3.578 2.332.316 4.434-1.383 4.434-3.584 0-.29-.172-1.075-.31-1.403-.05-.103.075-.11 1.964-.11 1.107 0 2.013.014 2.013.02 0 .013-.062.193-.139.406-.767 2.065.755 4.356 3.107 4.671 2.33.316 4.434-1.383 4.434-3.584 0-.29-.173-1.075-.312-1.396-.041-.097.049-.11.893-.129.81-.02.954-.039 1.12-.154.367-.251.478-.457.478-.863 0-.405-.111-.611-.478-.862-.186-.135-.228-.135-9.747-.167-9.172-.032-9.573-.039-9.822-.155-.533-.244-.948-.856-.948-1.39 0-.592.553-1.3 1.148-1.467.222-.058 2.38-.077 9.083-.077 9.664 0 9.097.026 9.429-.393.096-.122 1.19-2.355 2.442-4.974 2.089-4.382 2.262-4.774 2.227-5.032-.041-.341-.325-.714-.643-.837-.194-.077-2.096-.09-12.023-.09H10.728l-.103-.437a380.23 380.23 0 01-.505-2.227c-.415-1.86-.485-2.046-.879-2.316-.187-.129-.29-.135-2.179-.148-1.543-.013-2.034 0-2.193.07zm27.476 7.194c-.014.045-.789 1.667-1.716 3.603l-1.68 3.527h-8.04c-7.602 0-8.045-.007-8.08-.116-.02-.058-.38-1.615-.802-3.456-.422-1.84-.782-3.41-.81-3.494l-.034-.141h10.598c8.453 0 10.59.019 10.563.077zM15.239 27.312c.595.167 1.148.875 1.148 1.467 0 .798-.803 1.545-1.66 1.545-.858 0-1.66-.747-1.66-1.545 0-.405.159-.733.518-1.061.484-.457 1.003-.58 1.654-.406zm11.068 0c.595.167 1.148.875 1.148 1.467 0 .798-.802 1.545-1.66 1.545-.858 0-1.66-.747-1.66-1.545 0-.405.159-.733.518-1.061.485-.457 1.004-.58 1.654-.406z" fill="#D76400"/></svg>