<svg width="38" height="38" fill="none" xmlns="http://www.w3.org/2000/svg"><path d="M18.215 8.523c-.29.083-11.568 5.092-12.758 5.669-.469.23-.832.582-1.05 1.024-.251.513-.245 1.23.013 1.743.33.647.588.813 2.94 1.87l2.128.948v3.536c0 3.888 0 3.927.41 4.663.264.48.911 1.07 1.453 1.32 1.942.884 4.67 1.524 7.089 1.653 1.711.09 4.288-.289 6.31-.936.924-.294 2.021-.743 2.338-.954.39-.263.86-.769 1.057-1.153.364-.692.37-.762.37-4.586v-3.536l.516-.23.509-.238.033 2.94c.033 2.844.04 2.947.171 3.12.258.34.47.442.886.442.416 0 .627-.103.885-.442.139-.173.139-.257.159-3.594l.02-3.42.548-.257c.674-.3 1.097-.666 1.341-1.153.251-.48.258-1.217.033-1.704-.192-.403-.614-.826-1.03-1.037-.641-.314-12.038-5.42-12.461-5.573-.549-.205-1.388-.256-1.91-.115zM25.49 13.3c3.37 1.531 6.105 2.8 6.079 2.825-.027.026-2.782 1.275-6.125 2.78-3.779 1.698-6.184 2.742-6.356 2.76-.297.04.034.18-7.65-3.31-1.632-.744-3.443-1.557-4.01-1.814-.576-.25-1.045-.474-1.045-.493 0-.019.278-.153.615-.3.33-.148 3.118-1.39 6.19-2.774 5.207-2.338 5.603-2.505 5.88-2.48.219.02 1.956.782 6.422 2.806zm-10.326 9.02c1.506.678 2.92 1.274 3.138 1.319 1.018.237 1.282.154 4.962-1.5l3.105-1.396.02 2.89c.007 1.588 0 2.984-.02 3.1-.092.5-.62.8-2.352 1.345-1.777.557-3.297.8-5.014.8-1.309 0-2.082-.083-3.416-.377-1.434-.308-3.304-.961-3.647-1.262-.33-.301-.337-.34-.337-3.53v-2.978l.416.18c.225.102 1.645.736 3.145 1.408z" fill="#204776"/></svg>