<svg xmlns="http://www.w3.org/2000/svg" width="22" height="22" fill="none"><path d="M9.825 1.617c.37-1.139 1.98-1.139 2.35 0l1.69 5.203c.166.51.64.854 1.176.854h5.47c1.198 0 1.695 1.532.727 2.235l-4.426 3.216a1.236 1.236 0 00-.449 1.381l1.69 5.203c.37 1.139-.932 2.085-1.9 1.382l-4.427-3.216a1.236 1.236 0 00-1.452 0l-4.426 3.216c-.969.703-2.272-.243-1.902-1.382l1.69-5.203a1.236 1.236 0 00-.448-1.381L.762 9.909c-.969-.703-.47-2.235.726-2.235H6.96c.535 0 1.01-.345 1.175-.854l1.69-5.203z" stroke="#D76400" stroke-width="1.5"/></svg>