<svg width="30" height="30" fill="none" xmlns="http://www.w3.org/2000/svg"><path d="M21.245 2.16c-.04.01-.246.043-.452.072-1.8.28-3.489 1.488-4.333 3.106-.453.862-.614 1.546-.614 2.576 0 .81.076 1.276.307 1.902a5.999 5.999 0 003.021 3.27 6.85 6.85 0 001.584.51l.337.058v2.114c0 1.166-.015 2.114-.035 2.114a4.91 4.91 0 01-.413-.096 3.133 3.133 0 00-.512-.096c-.126 0-.161-.058-.674-1.17-.694-1.498-.875-1.826-1.186-2.163-.337-.366-.91-.727-1.418-.89l-.412-.135h-7.24l-.412.134c-.718.232-1.402.752-1.764 1.334-.075.116-.407.8-.74 1.517l-.607 1.3-.433.034c-.884.063-1.508.337-2.131.93-.322.303-.453.471-.619.794-.336.66-.356.819-.356 3 0 1.825.005 1.926.1 2.105a.66.66 0 00.302.288c.18.087.291.097 1.332.097 1.036 0 1.136.01 1.161.082.262.77.955 1.44 1.77 1.71.477.153 1.251.153 1.73 0 .813-.27 1.507-.94 1.769-1.71.025-.077.2-.082 2.77-.082 2.568 0 2.744.005 2.77.082.18.539.643 1.107 1.14 1.415.473.294.875.405 1.494.405.417 0 .598-.024.864-.11.674-.222 1.287-.728 1.594-1.316l.156-.298v.587c0 .694.07.882.392 1.055.246.13.457.135.714.01.337-.164.402-.357.402-1.156v-.674h.528c.648 0 .87-.082 1.035-.39.1-.193.106-.25.086-1.604-.02-1.242-.035-1.444-.131-1.777a4.888 4.888 0 00-1.216-2.06l-.302-.309v-5.071l.342-.058a6.151 6.151 0 003.157-1.608c.86-.828 1.407-1.791 1.659-2.918.115-.51.13-1.695.025-2.191-.478-2.307-2.267-4.089-4.63-4.604-.392-.087-1.7-.168-1.91-.115zm1.735 1.565c1.573.39 2.815 1.58 3.247 3.106.09.313.111.515.111 1.083s-.02.77-.11 1.084c-.433 1.526-1.655 2.696-3.248 3.11-.327.087-.538.106-1.131.106s-.805-.019-1.131-.106c-1.594-.414-2.816-1.584-3.248-3.11-.09-.313-.11-.516-.11-1.084 0-.568.02-.77.11-1.083.463-1.642 1.84-2.866 3.564-3.179.523-.096 1.418-.062 1.946.073zM12.197 16.197v1.445H7.326l.25-.545c.745-1.603.75-1.608 1.031-1.863.488-.443.619-.472 2.273-.477l1.317-.005v1.445zm4.338-1.31c.13.058.362.212.508.347.281.255.286.265 1.03 1.863l.252.544h-4.62v-2.894l1.297.015c1.201.014 1.307.024 1.533.125zm-4.338 6.366v2.167h-.93c-.845 0-.935-.01-.96-.087-.181-.534-.644-1.102-1.142-1.41-.472-.294-.874-.405-1.493-.405-.618 0-1.02.11-1.493.404-.497.309-.96.877-1.14 1.411-.026.078-.106.087-.71.087h-.683l.015-1.531.015-1.527.13-.265c.232-.476.604-.79 1.117-.939.165-.053.97-.067 3.745-.067l3.529-.005v2.167zm7.968-2.095c.457.092 1.106.4 1.417.674l.242.212-.242.005c-.331 0-.613.15-.739.386a.65.65 0 000 .674c.161.303.322.356 1.131.385l.704.024.035.193c.02.106.036.534.036.948l.005.761h-.805c-.724 0-.809-.01-.834-.087-.181-.534-.644-1.102-1.141-1.41-.473-.294-.875-.405-1.493-.405-.619 0-1.02.11-1.493.404-.498.309-.96.877-1.142 1.411-.025.078-.12.087-1.085.087h-1.056v-4.334h3.056c2.484 0 3.117.015 3.404.072zM8.1 23.02c.462.15.83.646.83 1.122 0 .636-.594 1.204-1.258 1.204-.301 0-.653-.144-.88-.36a1.146 1.146 0 010-1.686c.348-.337.825-.439 1.308-.28zm10.808 0c.462.15.83.646.83 1.122 0 .636-.594 1.204-1.257 1.204a1.36 1.36 0 01-.88-.36 1.146 1.146 0 010-1.686c.347-.337.824-.439 1.307-.28z" fill="#204776"/><path d="M19.751 4.625a.816.816 0 00-.346.316c-.113.204-.119.311-.119 2.786s.006 2.582.12 2.786c.137.24.477.428.775.428.298 0 .638-.187.775-.428.096-.166.12-.316.12-.697v-.482h.566c.304 0 .704-.027.877-.059 1.067-.203 1.896-.985 2.087-1.971.239-1.243-.698-2.464-2.087-2.732-.173-.032-.817-.06-1.432-.06-.99.006-1.139.017-1.336.113zm2.636 1.602c.269.123.478.429.478.697 0 .267-.21.573-.477.696-.185.086-.352.107-.776.107h-.537V6.12h.537c.424 0 .59.021.776.107z" fill="#204776"/></svg>