<svg width="30" height="30" fill="none" xmlns="http://www.w3.org/2000/svg"><path d="M8.4 3.812a3.518 3.518 0 00-2.615 2.595c-.11.44-.114.965-.013 1.18.176.378.699.517 1.055.275.224-.153.303-.328.36-.8.185-1.477 1.679-2.253 2.914-1.512.461.273.843.884.918 1.459.04.327.057 11.054.013 11.054a1.84 1.84 0 01-.228-.175c-.506-.431-1.086-.633-1.789-.638-.751 0-1.31.22-1.93.745-.412.35-.496.4-.816.467-.418.09-.756-.009-1.187-.336-.272-.211-.294-.22-.576-.22-.228 0-.325.022-.422.094-.153.112-.32.44-.32.624 0 .48.712 1.082 1.542 1.302.37.099 1.028.099 1.402 0a2.967 2.967 0 001.208-.655c.172-.149.383-.315.48-.364.355-.184.896-.184 1.256.009.084.05.295.206.462.359.351.31.79.548 1.208.655.343.09.989.1 1.323.018.4-.094.918-.368 1.27-.673.18-.153.435-.332.567-.395.47-.22 1.055-.117 1.48.27.48.43.862.646 1.38.78.366.095 1.192.068 1.517-.049a3.209 3.209 0 001.059-.615c.466-.408.672-.503 1.077-.498.426.004.69.12 1.116.502.343.306.782.544 1.208.656.374.099 1.033.099 1.402 0 .83-.22 1.543-.822 1.543-1.302 0-.184-.167-.512-.321-.624-.097-.072-.194-.094-.422-.094-.281 0-.303.009-.576.22-.43.327-.769.426-1.186.336-.321-.067-.404-.116-.818-.467-.584-.498-1.177-.74-1.828-.745l-.338-.004-.013-5.33c-.014-5.037-.018-5.338-.097-5.572-.378-1.163-1.033-1.926-1.995-2.33-.488-.207-.734-.251-1.35-.251-.474 0-.628.018-.9.107-1.415.445-2.338 1.603-2.487 3.112-.049.512.145.857.553.983.224.072.47 0 .681-.188.168-.149.211-.279.277-.795.216-1.621 2.132-2.29 3.261-1.132.11.113.255.297.32.413.234.413.251.57.251 2.47v1.742l-3.357-.01-3.362-.012-.017-1.819c-.018-2.097-.031-2.195-.392-2.963-.197-.418-.268-.517-.646-.898-.474-.476-.883-.732-1.454-.898-.444-.13-1.222-.162-1.648-.063zm10.876 9.716v1.527h-6.719l-.013-1.509c-.009-.83-.004-1.518.004-1.527.01-.009 1.53-.018 3.375-.018h3.353v1.527zm0 3.677v.624l-.228.211c-.343.315-.642.44-1.024.44-.396 0-.686-.125-1.077-.48-.33-.296-.949-.624-1.331-.7a3.858 3.858 0 00-.602-.054c-.194 0-.462.027-.602.053-.378.077-1.002.405-1.323.696-.268.238-.505.4-.54.36a11.334 11.334 0 01-.005-.894l.013-.88h6.719v.624z" fill="#204776"/><path d="M8.485 20.049c-.537.093-1.02.32-1.473.692a2.536 2.536 0 01-.475.295c-.207.085-.281.097-.598.08-.391-.02-.536-.072-.88-.319-.369-.27-.729-.291-1.028-.056-.409.315-.343.804.158 1.172 1.117.813 2.66.785 3.729-.072.351-.284.514-.373.8-.433.457-.097.888.032 1.371.42.321.26.955.563 1.31.627.33.065.95.053 1.285-.02.417-.089.861-.307 1.266-.619.422-.327.668-.428 1.064-.428.395 0 .642.1 1.064.428.663.518 1.253.708 2.08.672.711-.033 1.226-.223 1.78-.66.488-.388.914-.517 1.372-.42.285.06.448.15.8.433 1.068.857 2.611.885 3.728.072.501-.368.567-.857.158-1.172-.299-.235-.66-.215-1.028.056-.326.235-.493.3-.831.32-.497.028-.726-.061-1.31-.51-1.065-.829-2.603-.797-3.72.073-.431.335-.69.445-1.064.445-.413 0-.655-.093-1.046-.393-.669-.517-1.223-.715-1.983-.715s-1.315.198-1.983.715c-.392.3-.633.393-1.047.393-.373 0-.633-.11-1.064-.445-.716-.554-1.591-.78-2.435-.631z" fill="#204776"/><path d="M8.402 22.595c-.427.12-.959.502-1.345.969-.422.508-.695.66-1.121.623-.352-.03-.546-.139-.888-.508-.405-.436-.783-.424-1.086.036a1.262 1.262 0 00-.066 1.242c.132.26.505.66.813.872.466.32.734.4 1.314.393.458 0 .572-.024.875-.163.436-.212.647-.382 1.073-.866.725-.836 1.354-.848 2.049-.03.62.726 1.134 1.029 1.828 1.078.774.054 1.482-.285 2.084-1 .453-.539.629-.648 1.082-.648.453 0 .628.11 1.081.648.717.854 1.653 1.193 2.537.92.55-.175.892-.43 1.42-1.053.448-.527.95-.678 1.433-.424.132.067.378.285.563.503.417.478.646.66 1.081.872.303.14.418.163.875.163.58.006.848-.072 1.314-.393.308-.212.682-.612.814-.872.197-.4.171-.879-.066-1.242-.304-.46-.682-.472-1.086-.036-.343.37-.537.478-.888.509-.427.036-.7-.116-1.121-.624-.756-.903-1.662-1.242-2.563-.963-.55.175-.915.442-1.42 1.053-.339.406-.65.564-1.05.534-.379-.037-.59-.176-1.012-.667-.54-.642-1.248-1.017-1.912-1.017-.664 0-1.372.375-1.913 1.017-.422.49-.633.63-1.01.666-.405.03-.713-.127-1.06-.545-.62-.744-1.178-1.072-1.908-1.114a2.404 2.404 0 00-.721.067z" fill="#204776"/></svg>