<svg width="30" height="30" fill="none" xmlns="http://www.w3.org/2000/svg"><path d="M16.482 3.262a2.926 2.926 0 00-.498.175c-.253.12-.451.295-1.359 1.188-.585.58-1.124 1.134-1.193 1.23-.143.194-.18.493-.083.687.028.055.843.893 1.81 1.865l1.756 1.76-3.377 3.372-3.372 3.376-1.76-1.755c-.971-.967-1.81-1.783-1.865-1.81-.193-.097-.493-.06-.686.083-.097.069-.65.608-1.23 1.193-.889.902-1.068 1.105-1.184 1.354-.419.898-.24 1.769.525 2.524.166.161.304.313.304.336 0 .023-.156.212-.354.42-.944 1.004-.935 2.123.023 3.122l.368.383-.368.382c-.742.774-.912 1.603-.502 2.478.368.788 1.294 1.276 2.15 1.133.48-.078.835-.271 1.272-.69l.382-.369.383.368c.599.576 1.211.802 1.88.691.474-.078.82-.267 1.266-.69l.396-.374.318.323c.594.603 1.202.847 1.884.746.654-.092.824-.212 2.013-1.382.585-.58 1.124-1.133 1.193-1.23.142-.193.18-.492.083-.686-.028-.055-.843-.894-1.81-1.866l-1.756-1.76 3.377-3.37 3.372-3.377 1.76 1.755c.971.967 1.81 1.782 1.865 1.81.193.097.492.06.686-.083.097-.069.65-.608 1.23-1.193 1.17-1.184 1.29-1.359 1.382-2.004.096-.69-.143-1.299-.747-1.893l-.322-.318.373-.396c.424-.447.613-.792.691-1.266.11-.668-.115-1.281-.69-1.88l-.37-.382.37-.382c.418-.438.612-.793.69-1.272.143-.857-.345-1.782-1.133-2.15-.875-.41-1.704-.24-2.478.501l-.382.369-.383-.369c-1-.958-2.119-.967-3.123-.023-.207.198-.396.355-.419.355-.023 0-.175-.138-.336-.304-.613-.617-1.276-.852-2.022-.705zm.7 1.396c.087.037 1.824 1.74 4.164 4.085 4.288 4.303 4.118 4.114 4.044 4.5-.023.144-.17.31-.843.991l-.815.815-4.385-4.385-4.39-4.39.774-.773c.424-.429.833-.806.907-.843a.658.658 0 01.544 0zm3.887-.014c.17.06 4.141 4.021 4.257 4.242.17.332.069.636-.35 1.05l-.254.254-2.45-2.455-2.455-2.45.253-.254c.387-.392.686-.507 1-.387zm3.976.046c.207.115.368.382.368.603 0 .194-.184.489-.479.774l-.212.208-.493-.498-.497-.493.253-.258c.428-.433.719-.525 1.06-.336zm-6.67 6.937c.248.249.451.47.451.497 0 .06-.884.945-.944.945-.06 0-.944-.885-.944-.945 0-.06.884-.944.944-.944.023 0 .249.203.493.447zm-1.944 1.971l.484.484-1.42 1.419-1.413 1.414-.493-.497-.498-.493 1.405-1.405c.774-.774 1.414-1.405 1.428-1.405.014 0 .24.216.507.483zM14.252 24.53c-.847.852-.963.926-1.308.866-.157-.032-.585-.442-4.22-4.072-4.315-4.316-4.182-4.164-4.108-4.556.028-.147.152-.294.843-.994l.815-.816 4.385 4.385 4.39 4.39-.797.797zm-1.635-7.144c.249.248.451.47.451.497 0 .06-.884.944-.944.944-.06 0-.944-.884-.944-.944 0-.06.884-.944.944-.944.023 0 .249.203.493.447zM7.748 22.28l2.442 2.442-.254.253c-.414.419-.718.52-1.05.35-.092-.05-1.087-1.009-2.206-2.133-2.225-2.234-2.17-2.16-2.046-2.575.051-.16.558-.778.645-.778.014 0 1.124 1.096 2.47 2.441zm-1.957 1.96l.479.483-.203.212c-.447.461-.765.572-1.106.383-.322-.18-.451-.572-.294-.885.069-.138.562-.677.617-.677.014 0 .24.217.507.484z" fill="#204776"/></svg>