<svg width="30" height="30" fill="none" xmlns="http://www.w3.org/2000/svg"><path d="M14.335 5.129a38.24 38.24 0 00-1.447 1.145c-.809.721-1.472 1.91-1.715 3.08a1.957 1.957 0 01-.098.36c-.01.015-.175 0-.365-.029-.205-.034-1.136-.054-2.315-.054H6.417l-.01 2.788-.015 2.792-1.695.014-1.7.01.023 2.11c.02 1.696.04 2.174.103 2.47a6.625 6.625 0 001.783 3.314c.902.902 1.925 1.457 3.29 1.789.311.078.925.082 7.016.102 6.959.015 7.115.01 7.894-.195 2.383-.629 4.137-2.466 4.712-4.936.093-.4.103-.624.122-2.544l.025-2.11-1.701-.01-1.696-.014-.014-2.792-.01-2.788h-1.979c-1.179 0-2.11.02-2.314.054-.19.03-.356.044-.366.03a1.957 1.957 0 01-.097-.361c-.234-1.116-.775-2.14-1.555-2.914-.311-.317-2.611-2.12-2.743-2.154-.02-.005-.536.375-1.155.843zm1.832 1.486c1.077.819 1.526 1.31 1.867 2.052.18.39.355 1.013.38 1.35l.014.219-.428.243a6.365 6.365 0 00-2.178 2.066c-.176.273-.327.493-.342.493-.014 0-.165-.225-.34-.498a6.679 6.679 0 00-2.276-2.12l-.332-.18.015-.219c.053-.867.56-1.91 1.262-2.592.283-.273 1.603-1.306 1.671-1.306.025 0 .332.224.687.492zm-5.145 4.62a5.092 5.092 0 013.572 3.61c.107.415.121.58.146 1.594l.02 1.135-.478-.477a6.307 6.307 0 00-2.52-1.545c-.78-.258-1.247-.317-2.65-.317H7.879v-4.151l1.379.019c1.237.02 1.413.034 1.764.132zm12.06 1.93v2.07h-1.233c-1.403 0-1.852.054-2.65.317a6.476 6.476 0 00-2.544 1.569l-.454.453.02-1.13c.024-1.019.039-1.184.146-1.599a5.062 5.062 0 013.889-3.679c.204-.043.75-.063 1.574-.068l1.252-.005v2.071zM11.07 16.857c1.789.546 3.085 1.88 3.543 3.664.088.332.102.58.122 1.72l.024 1.326h-2.885c-2.723 0-2.909-.005-3.376-.103a5.031 5.031 0 01-3.801-3.43c-.185-.585-.23-1.033-.23-2.246v-1.097l3.085.015 3.08.014.438.137zm15.423.93c0 1.214-.044 1.662-.229 2.247-.253.814-.624 1.418-1.252 2.052-.678.682-1.399 1.096-2.344 1.35-.375.097-.517.102-3.426.116l-3.04.02.019-1.33c.02-1.238.03-1.365.146-1.794.458-1.69 1.715-3.011 3.348-3.528.224-.073.521-.146.658-.17.136-.025 1.569-.044 3.186-.05l2.934-.004v1.092z" fill="#204776"/></svg>